# xmcd
#
# Track frame offsets:
#	150
#	20844
#	46124
#	61618
#	79894
#	102084
#	131471
#	147814
#	163236
#	185548
#	208229
#	229141
#
# Disc length: 3448 seconds
#
# Revision: 0
# Processed by: cddbd v1.5.1PL0 Copyright (c) Steve Scherf et al.
# Submitted via: dBpowerAMP V4.0
#
DISCID=a20d760c
DTITLE=John Earl Walker Band - Little Miss Perfect
DYEAR=2002
DGENRE=Blues
TTITLE0=Last Time Out
TTITLE1=Hurricane
TTITLE2=It's Me
TTITLE3=What You Gonna Do
TTITLE4=It's A Shame
TTITLE5=Follow My Heart
TTITLE6=Comin' Home
TTITLE7=She Looks At Me
TTITLE8=You Let Me Down
TTITLE9=Gave You My Heart
TTITLE10=Little Miss Perfect
TTITLE11=Can't Let You Be
EXTD=
EXTT0=
EXTT1=
EXTT2=
EXTT3=
EXTT4=
EXTT5=
EXTT6=
EXTT7=
EXTT8=
EXTT9=
EXTT10=
EXTT11=
PLAYORDER=
